<svg xmlns="http://www.w3.org/2000/svg" viewBox="0 0 461.18 83.55"><title>logo-bright</title><path d="M135.38,21.5A21.42,21.42,0,0,1,113.54,43H102.3V64H89.69V0h23.85A21.42,21.42,0,0,1,135.38,21.5Zm-12.52,0c0-5.57-3.93-9.69-9.32-9.69H102.3V31.18h11.24C118.93,31.18,122.86,27,122.86,21.5Z" style="fill:#191923"/><path d="M166.78,17.38V30.54c-6.12-.73-13.89,2-13.89,11.61V64H141.1V18.3h11.79v7.86C155.26,19.94,161,17.38,166.78,17.38Z" style="fill:#191923"/><path d="M172.5,5.6A7.27,7.27,0,1,1,187,5.6a7.27,7.27,0,0,1-14.53,0Zm1.37,12.7h11.79V64H173.87Z" style="fill:#191923"/><path d="M263.4,35.84V64H251.61V36.67c0-5.39-2.74-8.68-7.68-8.68-5.21,0-8.5,3.47-8.5,10.33V64H223.65V36.67c0-5.39-2.74-8.68-7.68-8.68s-8.59,3.47-8.59,10.33V64H195.59V18.3h11.79v4.84c2.56-3.84,6.85-6.12,12.7-6.12,5.67,0,9.87,2.38,12.43,6.58,2.83-4.11,7.4-6.58,13.62-6.58C256.55,17,263.4,24.42,263.4,35.84Z" style="fill:#191923"/><path d="M295.69,54.58A12.66,12.66,0,0,0,305.93,50l9.5,5.48c-4.3,6.21-11.15,9.78-19.92,9.78-15.35,0-25-10.51-25-24.13S280.25,17,294.6,17c13.52,0,23.12,10.69,23.12,24.12a27.23,27.23,0,0,1-.46,4.84H282.81C284.45,52,289.48,54.58,295.69,54.58Zm10.23-17.73c-1.46-6.58-6.4-9.23-11.33-9.23-6.31,0-10.6,3.38-12,9.23Z" style="fill:#191923"/><path d="M340.63,29.63v19c0,4.93,3.56,5,10.33,4.66V64c-16.54,1.83-22.11-3-22.11-15.35v-19h-8V18.3h8V5.5h11.79V18.3H351V29.63Z" style="fill:#191923"/><path d="M404.8,18.3V64H393V58.6c-3.29,4.11-8.22,6.67-14.9,6.67-12.15,0-22.21-10.51-22.21-24.13S366,17,378.12,17c6.67,0,11.61,2.56,14.9,6.67V18.3ZM393,41.14c0-7.68-5.39-12.88-12.7-12.88S367.7,33.47,367.7,41.14,373.09,54,380.31,54,393,48.82,393,41.14Z" style="fill:#191923"/><path d="M461.18,18.3V61.8c0,15-11.79,21.75-23.85,21.75-9.78,0-17.64-3.75-21.66-11.15l10.05-5.76c1.92,3.56,4.93,6.4,12,6.4,7.4,0,12-4,12-11.24V56.86c-3.2,4.3-8.13,6.95-14.62,6.95-13,0-22.75-10.51-22.75-23.39S422.06,17,435,17c6.49,0,11.42,2.65,14.62,6.94V18.3ZM449.66,40.41c0-7.22-5.39-12.43-12.79-12.43s-12.79,5.21-12.79,12.43,5.39,12.52,12.79,12.52S449.66,47.72,449.66,40.41Z" style="fill:#191923"/><polygon points="51.16 0 12.79 0 0 0 0 12.79 0 51.18 12.79 51.18 12.79 12.79 51.16 12.79 51.16 51.19 25.57 51.19 25.57 63.98 51.16 63.98 63.95 63.98 63.95 51.19 63.95 12.79 63.95 0 51.16 0" style="fill:#4121f1"/><rect x="25.58" y="25.6" width="12.78" height="12.78" style="fill:#4121f1"/></svg>