<svg xmlns="http://www.w3.org/2000/svg" viewBox="0 0 21.6 16.6"><title>icon-lp-mail</title><rect x="0.8" y="0.8" width="20" height="15" rx="1" ry="1" style="fill:#fff"/><path d="M19.82,16.58h-18A1.8,1.8,0,0,1,0,14.78v-13A1.8,1.8,0,0,1,1.82,0h18a1.8,1.8,0,0,1,1.8,1.8v13A1.8,1.8,0,0,1,19.82,16.58Zm-18-15a.2.2,0,0,0-.2.2v13a.2.2,0,0,0,.2.2h18a.2.2,0,0,0,.2-.2v-13a.2.2,0,0,0-.2-.2Z" transform="translate(-0.02 0.02)"/><polygon points="10.77 9.98 1.15 2.12 2.17 0.88 10.77 7.92 19.38 1.01 20.38 2.25 10.77 9.98"/></svg>