<svg xmlns="http://www.w3.org/2000/svg" xmlns:xlink="http://www.w3.org/1999/xlink" viewBox="0 0 15.5 20"><defs><mask id="a" x="0" y="0" width="15.5" height="20" maskUnits="userSpaceOnUse"><g transform="translate(1 1)"><rect width="13.5" height="18" rx="1" ry="1" style="fill:#fff"/><rect x="5.63" y="13.5" width="2.25" height="2.25" rx="1" ry="1" style="fill:#fff"/></g></mask></defs><title>icon-lp-phone</title><g style="mask:url(#a)"><path d="M6.93,15.46a.91.91,0,0,1-.09-1.82h.09a.86.86,0,0,1,.86.86A.89.89,0,0,1,6.93,15.46ZM6.8,14.6l.09,0A.14.14,0,0,0,7,14.51s-.06,0-.14,0,0,.06,0,.14Z" transform="translate(1 1)"/><rect x="1.75" y="12" width="12.5" height="1.5"/><path d="M12.5-1H1A2,2,0,0,0-1,1V17a2,2,0,0,0,2,2H12.5a2,2,0,0,0,2-2V1A2,2,0,0,0,12.5-1Zm0,18H1V1H12.5Z" transform="translate(1 1)"/></g></svg>